<?xml version="1.0" encoding="UTF-8"?>
<svg xmlns="http://www.w3.org/2000/svg" xmlns:xlink="http://www.w3.org/1999/xlink" version="1.1" id="Capa_1" x="0px" y="0px" viewBox="0 0 512 512" style="enable-background:new 0 0 512 512;" xml:space="preserve" width="512" height="512">
<g>
	<g>
		<path style="fill:#FFE5C2;" d="M502.114,178.945L419.216,59.282c-3.779-5.454-9.328-9.434-15.706-11.262l-63.745-18.275&#10;&#9;&#9;&#9;c-1.807-0.518-3.703,0.432-4.38,2.185C323.121,63.679,292.308,86.2,256.233,86.2c-36.118,0-66.963-22.575-79.197-54.384&#10;&#9;&#9;&#9;c-0.675-1.756-2.573-2.708-4.382-2.19L108.49,48.02c-6.379,1.829-11.928,5.808-15.707,11.262L9.886,178.945&#10;&#9;&#9;&#9;c-4.884,7.051-1.968,16.811,5.984,20.026l82.756,33.454v229.332c0,11.465,9.294,20.759,20.758,20.759h273.229&#10;&#9;&#9;&#9;c11.465,0,20.759-9.294,20.759-20.759V232.425l82.756-33.454C504.081,195.756,506.998,185.996,502.114,178.945z"/>
		<path style="fill:#FED2A4;" d="M488.318,159.031l-80.96,33.799c-13.92,5.811-22.985,19.418-22.985,34.503v204.425&#10;&#9;&#9;&#9;c0,11.465-9.294,20.759-20.759,20.759H98.627v9.241c0,11.465,9.294,20.759,20.759,20.759h273.229&#10;&#9;&#9;&#9;c11.465,0,20.759-9.294,20.759-20.759V232.425l82.756-33.454c7.952-3.215,10.869-12.975,5.984-20.026L488.318,159.031z"/>
		<path style="fill:#60B7FF;" d="M172.655,29.625l-25.533,7.32c12.608,48.356,56.573,84.048,108.878,84.048&#10;&#9;&#9;&#9;s96.271-35.692,108.879-84.048l-25.114-7.2c-1.807-0.518-3.703,0.432-4.38,2.185C323.121,63.679,292.308,86.2,256.233,86.2&#10;&#9;&#9;&#9;c-36.118,0-66.963-22.575-79.197-54.384C176.361,30.059,174.463,29.107,172.655,29.625z"/>
		<circle style="fill:#FAF7F7;" cx="256" cy="259.883" r="89.147"/>
		<path style="fill:#F3EAE6;" d="M256,170.736c-5.113,0-10.123,0.437-15,1.263c42.091,7.133,74.147,43.762,74.147,87.883&#10;&#9;&#9;&#9;c0,44.122-32.056,80.751-74.147,87.884c4.877,0.826,9.887,1.263,15,1.263c49.234,0,89.147-39.912,89.147-89.146&#10;&#9;&#9;&#9;C345.147,210.649,305.234,170.736,256,170.736z"/>
		<path style="fill:#FE93D3;" d="M274.005,279.423c0,22.95,8.673,43.873,22.916,59.677c28.646-14.828,48.226-44.734,48.226-79.216&#10;&#9;&#9;&#9;c0-22.956-8.679-43.883-22.932-59.685C293.577,215.036,274.005,244.942,274.005,279.423z"/>
		<path style="fill:#FE73C5;" d="M322.214,200.198c-7.208,3.735-13.84,8.426-19.732,13.903c8.03,13.384,12.665,29.038,12.665,45.782&#10;&#9;&#9;&#9;c0,25.801-10.964,49.039-28.484,65.316c2.976,4.963,6.405,9.624,10.258,13.9c28.646-14.828,48.226-44.734,48.226-79.216&#10;&#9;&#9;&#9;C345.147,236.927,336.467,216,322.214,200.198z"/>
		<path style="fill:#FE93D3;" d="M166.931,256.298c48.003-0.041,87.122-38.013,89.018-85.561&#10;&#9;&#9;&#9;C207.94,170.764,168.813,208.743,166.931,256.298z"/>
		<path style="fill:#60B7FF;" d="M341.564,424.517H170.436c-10.593,0-19.181-8.588-19.181-19.181l0,0&#10;&#9;&#9;&#9;c0-10.593,8.588-19.181,19.181-19.181h171.128c10.593,0,19.181,8.588,19.181,19.181l0,0&#10;&#9;&#9;&#9;C360.745,415.929,352.158,424.517,341.564,424.517z"/>
		<path style="fill:#26A6FE;" d="M341.564,386.155h-10.86c-0.432,10.21-8.823,18.362-19.14,18.362H151.296&#10;&#9;&#9;&#9;c-0.012,0.274-0.041,0.543-0.041,0.819c0,10.593,8.588,19.181,19.181,19.181h171.129c10.593,0,19.181-8.588,19.181-19.181&#10;&#9;&#9;&#9;C360.745,394.743,352.157,386.155,341.564,386.155z"/>
	</g>
	<g>
		<path style="fill:none;stroke:#000000;stroke-width:15;stroke-linecap:round;stroke-linejoin:round;stroke-miterlimit:10;" d="&#10;&#9;&#9;&#9;M362.35,482.516h30.265c11.465,0,20.759-9.294,20.759-20.759V232.425l82.756-33.454c7.952-3.215,10.869-12.975,5.984-20.026&#10;&#9;&#9;&#9;L419.216,59.282c-3.779-5.454-9.328-9.434-15.706-11.262l-63.745-18.275c-1.807-0.518-3.703,0.432-4.38,2.185&#10;&#9;&#9;&#9;C323.121,63.679,292.308,86.2,256.233,86.2c-36.118,0-66.963-22.575-79.197-54.384c-0.675-1.756-2.573-2.708-4.382-2.19&#10;&#9;&#9;&#9;L108.49,48.02c-6.379,1.829-11.928,5.808-15.707,11.262L9.886,178.945c-4.884,7.051-1.968,16.811,5.984,20.026l82.756,33.454&#10;&#9;&#9;&#9;v229.332c0,11.465,9.294,20.759,20.758,20.759H327.35"/>
		
			<line style="fill:none;stroke:#000000;stroke-width:15;stroke-linecap:round;stroke-linejoin:round;stroke-miterlimit:10;" x1="98.627" y1="232.425" x2="98.627" y2="142.998"/>
		
			<line style="fill:none;stroke:#000000;stroke-width:15;stroke-linecap:round;stroke-linejoin:round;stroke-miterlimit:10;" x1="413.373" y1="235.712" x2="413.373" y2="142.998"/>
		<path style="fill:none;stroke:#000000;stroke-width:15;stroke-linecap:round;stroke-linejoin:round;stroke-miterlimit:10;" d="&#10;&#9;&#9;&#9;M172.655,29.625l-25.533,7.32c12.608,48.356,56.573,84.048,108.878,84.048s96.271-35.692,108.879-84.048l-25.114-7.2&#10;&#9;&#9;&#9;c-1.807-0.518-3.703,0.432-4.38,2.185C323.121,63.679,292.308,86.2,256.233,86.2c-36.118,0-66.963-22.575-79.197-54.384&#10;&#9;&#9;&#9;C176.361,30.059,174.463,29.107,172.655,29.625z"/>
		
			<circle style="fill:none;stroke:#000000;stroke-width:15;stroke-linecap:round;stroke-linejoin:round;stroke-miterlimit:10;" cx="256" cy="259.883" r="89.147"/>
		<path style="fill:none;stroke:#000000;stroke-width:15;stroke-linecap:round;stroke-linejoin:round;stroke-miterlimit:10;" d="&#10;&#9;&#9;&#9;M319.086,201.899c-26.925,15.347-45.081,44.314-45.081,77.523c0,21.88,7.882,41.917,20.959,57.432"/>
		<path style="fill:none;stroke:#000000;stroke-width:15;stroke-linecap:round;stroke-linejoin:round;stroke-miterlimit:10;" d="&#10;&#9;&#9;&#9;M169.333,256.264c45.42-1.24,82.353-36.443,86.333-81.128"/>
		<path style="fill:none;stroke:#000000;stroke-width:15;stroke-linecap:round;stroke-linejoin:round;stroke-miterlimit:10;" d="&#10;&#9;&#9;&#9;M253.541,386.155h88.023c10.593,0,19.181,8.588,19.181,19.181l0,0c0,10.593-8.588,19.181-19.181,19.181H170.436&#10;&#9;&#9;&#9;c-10.593,0-19.181-8.588-19.181-19.181l0,0c0-10.593,8.588-19.181,19.181-19.181h48.105"/>
	</g>
</g>















</svg>
